{
    "asset" : {
        "generator" : "Khronos glTF Blender I/O v0.9.36",
        "version" : "2.0"
    },
    "scene" : 0,
    "scenes" : [
        {
            "name" : "Scene",
            "nodes" : [
                0
            ]
        }
    ],
    "nodes" : [
        {
            "mesh" : 0,
            "name" : "Curve",
            "rotation" : [
                0.7071067690849304,
                0,
                0,
                0.7071067690849304
            ],
            "translation" : [
                -0.001464362838305533,
                0.09369773417711258,
                -6.13536685705185e-05
            ]
        }
    ],
    "materials" : [
        {
            "doubleSided" : true,
            "name" : "SVGMat.001",
            "pbrMetallicRoughness" : {
                "baseColorFactor" : [
                    0.0004453291476238519,
                    0.9386855363845825,
                    0.027125826105475426,
                    0.7826481461524963
                ],
                "metallicFactor" : 0,
                "roughnessFactor" : 0.5
            }
        }
    ],
    "meshes" : [
        {
            "name" : "Curve",
            "primitives" : [
                {
                    "attributes" : {
                        "POSITION" : 0,
                        "NORMAL" : 1
                    },
                    "indices" : 2,
                    "material" : 0
                }
            ]
        }
    ],
    "accessors" : [
        {
            "bufferView" : 0,
            "componentType" : 5126,
            "count" : 1154,
            "max" : [
                0.07045698910951614,
                0.01250002346932888,
                0.06515971571207047
            ],
            "min" : [
                -0.07096293568611145,
                -0.01249997690320015,
                -0.07623007148504257
            ],
            "type" : "VEC3"
        },
        {
            "bufferView" : 1,
            "componentType" : 5126,
            "count" : 1154,
            "type" : "VEC3"
        },
        {
            "bufferView" : 2,
            "componentType" : 5123,
            "count" : 2316,
            "type" : "SCALAR"
        }
    ],
    "bufferViews" : [
        {
            "buffer" : 0,
            "byteLength" : 13848,
            "byteOffset" : 0
        },
        {
            "buffer" : 0,
            "byteLength" : 13848,
            "byteOffset" : 13848
        },
        {
            "buffer" : 0,
            "byteLength" : 4632,
            "byteOffset" : 27696
        }
    ],
    "buffers" : [
        {
            "byteLength" : 32328,
            "uri" : "camptest2.bin"
        }
    ]
}
