{
    "asset" : {
        "generator" : "Khronos glTF Blender I/O v0.9.36",
        "version" : "2.0"
    },
    "scene" : 0,
    "scenes" : [
        {
            "name" : "Scene",
            "nodes" : [
                0,
                1,
                2
            ]
        }
    ],
    "nodes" : [
        {
            "mesh" : 0,
            "name" : "Icosphere",
            "translation" : [
                0,
                3.780245065689087,
                0
            ]
        },
        {
            "mesh" : 1,
            "name" : "Curve",
            "rotation" : [
                0.7071067690849304,
                0,
                0,
                0.7071067690849304
            ],
            "scale" : [
                14.856391906738281,
                -36.906341552734375,
                13.459558486938477
            ],
            "translation" : [
                0.007501818239688873,
                6.668829917907715,
                0
            ]
        },
        {
            "mesh" : 2,
            "name" : "Curve.001",
            "rotation" : [
                0.7071067690849304,
                0,
                0,
                0.7071067690849304
            ],
            "scale" : [
                14.856391906738281,
                -36.906341552734375,
                13.459558486938477
            ],
            "translation" : [
                -0.13078877329826355,
                5.959817409515381,
                0
            ]
        }
    ],
    "materials" : [
        {
            "alphaMode" : "BLEND",
            "doubleSided" : true,
            "emissiveFactor" : [
                0.04756719619035721,
                0.0167018324136734,
                1
            ],
            "name" : "Material",
            "pbrMetallicRoughness" : {
                "baseColorFactor" : [
                    0.11543428152799606,
                    0.011417297646403313,
                    0.8000000715255737,
                    1
                ],
                "metallicFactor" : 0.9704545736312866,
                "roughnessFactor" : 0.2454545497894287
            }
        },
        {
            "doubleSided" : true,
            "name" : "SVGMat.001",
            "pbrMetallicRoughness" : {}
        }
    ],
    "meshes" : [
        {
            "name" : "Icosphere",
            "primitives" : [
                {
                    "attributes" : {
                        "POSITION" : 0,
                        "NORMAL" : 1,
                        "TEXCOORD_0" : 2
                    },
                    "indices" : 3,
                    "material" : 0
                }
            ]
        },
        {
            "name" : "Curve",
            "primitives" : [
                {
                    "attributes" : {
                        "POSITION" : 4,
                        "NORMAL" : 5
                    },
                    "indices" : 6,
                    "material" : 1
                }
            ]
        },
        {
            "name" : "Curve.001",
            "primitives" : [
                {
                    "attributes" : {
                        "POSITION" : 7,
                        "NORMAL" : 8
                    },
                    "indices" : 9,
                    "material" : 0
                }
            ]
        }
    ],
    "accessors" : [
        {
            "bufferView" : 0,
            "componentType" : 5126,
            "count" : 240,
            "max" : [
                0.9510578513145447,
                1,
                0.9999999403953552
            ],
            "min" : [
                -0.9510578513145447,
                -1.3204401731491089,
                -0.9999999403953552
            ],
            "type" : "VEC3"
        },
        {
            "bufferView" : 1,
            "componentType" : 5126,
            "count" : 240,
            "type" : "VEC3"
        },
        {
            "bufferView" : 2,
            "componentType" : 5126,
            "count" : 240,
            "type" : "VEC2"
        },
        {
            "bufferView" : 3,
            "componentType" : 5123,
            "count" : 240,
            "type" : "SCALAR"
        },
        {
            "bufferView" : 4,
            "componentType" : 5126,
            "count" : 854,
            "max" : [
                0.07563666999340057,
                0,
                0.044721972197294235
            ],
            "min" : [
                -0.0692976713180542,
                -0.006545385345816612,
                -0.05184801667928696
            ],
            "type" : "VEC3"
        },
        {
            "bufferView" : 5,
            "componentType" : 5126,
            "count" : 854,
            "type" : "VEC3"
        },
        {
            "bufferView" : 6,
            "componentType" : 5123,
            "count" : 1230,
            "type" : "SCALAR"
        },
        {
            "bufferView" : 7,
            "componentType" : 5126,
            "count" : 4295,
            "max" : [
                0.05711808800697327,
                2.639880536392525e-09,
                0.056388407945632935
            ],
            "min" : [
                -0.03678650036454201,
                -0.006545382551848888,
                -0.04398903250694275
            ],
            "type" : "VEC3"
        },
        {
            "bufferView" : 8,
            "componentType" : 5126,
            "count" : 4295,
            "type" : "VEC3"
        },
        {
            "bufferView" : 9,
            "componentType" : 5123,
            "count" : 7017,
            "type" : "SCALAR"
        }
    ],
    "bufferViews" : [
        {
            "buffer" : 0,
            "byteLength" : 2880,
            "byteOffset" : 0
        },
        {
            "buffer" : 0,
            "byteLength" : 2880,
            "byteOffset" : 2880
        },
        {
            "buffer" : 0,
            "byteLength" : 1920,
            "byteOffset" : 5760
        },
        {
            "buffer" : 0,
            "byteLength" : 480,
            "byteOffset" : 7680
        },
        {
            "buffer" : 0,
            "byteLength" : 10248,
            "byteOffset" : 8160
        },
        {
            "buffer" : 0,
            "byteLength" : 10248,
            "byteOffset" : 18408
        },
        {
            "buffer" : 0,
            "byteLength" : 2460,
            "byteOffset" : 28656
        },
        {
            "buffer" : 0,
            "byteLength" : 51540,
            "byteOffset" : 31116
        },
        {
            "buffer" : 0,
            "byteLength" : 51540,
            "byteOffset" : 82656
        },
        {
            "buffer" : 0,
            "byteLength" : 14034,
            "byteOffset" : 134196
        }
    ],
    "buffers" : [
        {
            "byteLength" : 148232,
            "uri" : "checkpointCU.bin"
        }
    ]
}
