# Blender v2.80 (sub 75) OBJ File: 'CU-Logo-7-6-2020.blend'
# www.blender.org
mtllib CU-Logo-7-6-2020.mtl
o Curve_Curve.006
v -1.954333 5.787472 0.945101
v -1.957881 7.367698 0.945101
v -2.728182 7.367778 0.945101
v -2.728182 8.618870 0.945101
v -0.768861 8.618870 0.945101
v -0.768861 5.787472 0.945101
v 0.531894 5.787472 0.945101
v 0.531894 6.939786 0.945101
v 1.750282 6.939786 0.945101
v 1.750282 5.655787 0.945101
v 0.696549 4.519927 0.945101
v -0.703004 4.519927 0.945101
v -0.703004 2.890233 0.945101
v 2.952239 2.890233 0.945101
v 2.952239 8.618870 0.945101
v 5.059785 8.618870 0.945101
v 5.059785 7.384258 0.945101
v 4.302367 7.384258 0.945101
v 4.302367 2.775001 0.945101
v 3.166293 1.606233 0.945101
v -0.785318 1.606233 0.945101
v -1.929634 2.750307 0.945101
v -1.929634 4.487019 0.945101
v -4.127736 4.487019 0.945101
v -5.247352 5.622852 0.945101
v -5.247352 10.396703 0.945101
v -4.160650 11.499628 0.945101
v 0.663608 11.499628 0.945101
v 1.750282 10.446092 0.945101
v 1.750282 9.096249 0.945101
v 0.548351 9.096249 0.945101
v 0.548351 10.281471 0.945101
v -4.028937 10.281471 0.945101
v -4.028937 5.787472 0.945101
v -1.954333 5.787472 -0.945101
v -1.957881 7.367698 -0.945101
v -2.728182 7.367778 -0.945101
v -2.728182 8.618870 -0.945101
v -0.768861 8.618870 -0.945101
v -0.768861 5.787472 -0.945101
v 0.531894 5.787472 -0.945101
v 0.531894 6.939787 -0.945101
v 1.750282 6.939787 -0.945101
v 1.750282 5.655787 -0.945101
v 0.696549 4.519927 -0.945101
v -0.703004 4.519927 -0.945101
v -0.703004 2.890233 -0.945101
v 2.952239 2.890233 -0.945101
v 2.952239 8.618870 -0.945101
v 5.059785 8.618870 -0.945101
v 5.059785 7.384258 -0.945101
v 4.302367 7.384258 -0.945101
v 4.302367 2.775001 -0.945101
v 3.166293 1.606233 -0.945101
v -0.785318 1.606233 -0.945101
v -1.929634 2.750307 -0.945101
v -1.929634 4.487019 -0.945101
v -4.127736 4.487019 -0.945101
v -5.247352 5.622852 -0.945101
v -5.247352 10.396703 -0.945101
v -4.160650 11.499628 -0.945101
v 0.663608 11.499628 -0.945101
v 1.750282 10.446092 -0.945101
v 1.750282 9.096249 -0.945101
v 0.548351 9.096249 -0.945101
v 0.548351 10.281471 -0.945101
v -4.028937 10.281471 -0.945101
v -4.028937 5.787472 -0.945101
v -1.954333 5.787472 -0.945101
v -1.954333 5.787472 0.945101
v -1.957881 7.367698 -0.945101
v -1.957881 7.367698 0.945101
v -2.728182 7.367778 -0.945101
v -2.728182 7.367778 0.945101
v -2.728182 8.618870 -0.945101
v -2.728182 8.618870 0.945101
v -0.768861 8.618870 -0.945101
v -0.768861 8.618870 0.945101
v -0.768861 5.787472 -0.945101
v -0.768861 5.787472 0.945101
v 0.531894 5.787472 -0.945101
v 0.531894 5.787472 0.945101
v 0.531894 6.939787 -0.945101
v 0.531894 6.939786 0.945101
v 1.750282 6.939787 -0.945101
v 1.750282 6.939786 0.945101
v 1.750282 5.655787 -0.945101
v 1.750282 5.655787 0.945101
v 0.696549 4.519927 -0.945101
v 0.696549 4.519927 0.945101
v -0.703004 4.519927 -0.945101
v -0.703004 4.519927 0.945101
v -0.703004 2.890233 -0.945101
v -0.703004 2.890233 0.945101
v 2.952239 2.890233 -0.945101
v 2.952239 2.890233 0.945101
v 2.952239 8.618870 -0.945101
v 2.952239 8.618870 0.945101
v 5.059785 8.618870 -0.945101
v 5.059785 8.618870 0.945101
v 5.059785 7.384258 -0.945101
v 5.059785 7.384258 0.945101
v 4.302367 7.384258 -0.945101
v 4.302367 7.384258 0.945101
v 4.302367 2.775001 -0.945101
v 4.302367 2.775001 0.945101
v 3.166293 1.606233 -0.945101
v 3.166293 1.606233 0.945101
v -0.785318 1.606233 -0.945101
v -0.785318 1.606233 0.945101
v -1.929634 2.750307 -0.945101
v -1.929634 2.750307 0.945101
v -1.929634 4.487019 -0.945101
v -1.929634 4.487019 0.945101
v -4.127736 4.487019 -0.945101
v -4.127736 4.487019 0.945101
v -5.247352 5.622852 -0.945101
v -5.247352 5.622852 0.945101
v -5.247352 10.396703 -0.945101
v -5.247352 10.396703 0.945101
v -4.160650 11.499628 -0.945101
v -4.160650 11.499628 0.945101
v 0.663608 11.499628 -0.945101
v 0.663608 11.499628 0.945101
v 1.750282 10.446092 -0.945101
v 1.750282 10.446092 0.945101
v 1.750282 9.096249 -0.945101
v 1.750282 9.096249 0.945101
v 0.548351 9.096249 -0.945101
v 0.548351 9.096249 0.945101
v 0.548351 10.281471 -0.945101
v 0.548351 10.281471 0.945101
v -4.028937 10.281471 -0.945101
v -4.028937 10.281471 0.945101
v -4.028937 5.787472 -0.945101
v -4.028937 5.787472 0.945101
vn 0.0000 -0.0000 1.0000
vn 0.0000 0.0000 -1.0000
vn -0.7079 0.7063 0.0000
vn -0.7063 -0.7078 0.0000
vn -0.7071 -0.7071 0.0000
vn -0.7071 0.7071 0.0000
vn 0.7071 0.7071 0.0000
vn 0.9309 -0.3653 0.0000
vn 0.3999 -0.9165 0.0000
vn 0.7071 -0.7071 0.0000
vn 0.9265 -0.3761 0.0000
vn 0.3892 -0.9211 0.0000
vn -0.3826 -0.9239 0.0000
vn -0.9239 -0.3827 0.0000
vn -0.3860 -0.9225 0.0000
vn -0.9252 -0.3793 0.0000
vn -0.9253 0.3793 0.0000
vn -0.3861 0.9225 0.0000
vn 0.3755 0.9268 0.0000
vn 0.9209 0.3898 0.0000
usemtl SVGMat.007
s off
f 26//1 28//1 27//1
f 26//1 29//1 28//1
f 26//1 32//1 29//1
f 32//1 30//1 29//1
f 25//1 33//1 26//1
f 33//1 32//1 26//1
f 25//1 34//1 33//1
f 31//1 30//1 32//1
f 3//1 5//1 4//1
f 3//1 2//1 5//1
f 2//1 6//1 5//1
f 14//1 18//1 15//1
f 18//1 16//1 15//1
f 18//1 17//1 16//1
f 14//1 19//1 18//1
f 1//1 6//1 2//1
f 7//1 9//1 8//1
f 7//1 10//1 9//1
f 25//1 1//1 34//1
f 25//1 6//1 1//1
f 25//1 7//1 6//1
f 25//1 10//1 7//1
f 25//1 11//1 10//1
f 24//1 12//1 25//1
f 12//1 11//1 25//1
f 24//1 23//1 12//1
f 23//1 13//1 12//1
f 22//1 13//1 23//1
f 22//1 14//1 13//1
f 22//1 19//1 14//1
f 22//1 20//1 19//1
f 21//1 20//1 22//1
f 62//2 60//2 61//2
f 63//2 60//2 62//2
f 66//2 60//2 63//2
f 64//2 66//2 63//2
f 67//2 59//2 60//2
f 66//2 67//2 60//2
f 68//2 59//2 67//2
f 64//2 65//2 66//2
f 39//2 37//2 38//2
f 36//2 37//2 39//2
f 40//2 36//2 39//2
f 52//2 48//2 49//2
f 50//2 52//2 49//2
f 51//2 52//2 50//2
f 53//2 48//2 52//2
f 40//2 35//2 36//2
f 43//2 41//2 42//2
f 44//2 41//2 43//2
f 35//2 59//2 68//2
f 40//2 59//2 35//2
f 41//2 59//2 40//2
f 44//2 59//2 41//2
f 45//2 59//2 44//2
f 46//2 58//2 59//2
f 45//2 46//2 59//2
f 57//2 58//2 46//2
f 47//2 57//2 46//2
f 47//2 56//2 57//2
f 48//2 56//2 47//2
f 53//2 56//2 48//2
f 54//2 56//2 53//2
f 54//2 55//2 56//2
s 1
f 70//3 72//4 71//4 69//3
f 72//4 74//5 73//5 71//4
f 74//5 76//6 75//6 73//5
f 76//6 78//7 77//7 75//6
f 78//7 80//7 79//7 77//7
f 80//7 82//6 81//6 79//7
f 82//6 84//6 83//6 81//6
f 84//6 86//7 85//7 83//6
f 86//7 88//8 87//8 85//7
f 88//8 90//9 89//9 87//8
f 90//9 92//10 91//10 89//9
f 92//10 94//7 93//7 91//10
f 94//7 96//6 95//6 93//7
f 96//6 98//6 97//6 95//6
f 98//6 100//7 99//7 97//6
f 100//7 102//10 101//10 99//7
f 102//10 104//10 103//10 101//10
f 104//10 106//11 105//11 103//10
f 106//11 108//12 107//12 105//11
f 108//12 110//13 109//13 107//12
f 110//13 112//14 111//14 109//13
f 112//14 114//5 113//5 111//14
f 114//5 116//15 115//15 113//5
f 116//15 118//16 117//16 115//15
f 118//16 120//17 119//17 117//16
f 120//17 122//18 121//18 119//17
f 122//18 124//19 123//19 121//18
f 124//19 126//20 125//20 123//19
f 126//20 128//10 127//10 125//20
f 128//10 130//5 129//5 127//10
f 130//5 132//5 131//5 129//5
f 132//5 134//10 133//10 131//5
f 134//10 136//7 135//7 133//10
f 136//7 70//3 69//3 135//7
o Curve.001_Curve.007
v 0.986724 12.306084 0.472551
v 2.524019 10.673377 0.472551
v 2.524019 9.335669 0.472551
v 5.910262 9.335669 0.472551
v 5.910262 6.574754 0.472551
v 5.056687 6.574754 0.472551
v 5.056687 2.291164 0.472550
v 3.420780 0.713899 0.472550
v -1.191105 0.713899 0.472550
v -2.813808 2.319672 0.472550
v -2.813808 3.643193 0.472550
v -4.493432 3.643193 0.472550
v -6.123097 5.208645 0.472551
v -6.123097 10.673377 0.472551
v -4.493432 12.306084 0.472551
v 0.986724 12.306084 -0.472550
v 2.524019 10.673377 -0.472550
v 2.524019 9.335669 -0.472550
v 5.910262 9.335669 -0.472550
v 5.910262 6.574755 -0.472551
v 5.056687 6.574755 -0.472551
v 5.056687 2.291164 -0.472551
v 3.420780 0.713899 -0.472551
v -1.191105 0.713899 -0.472551
v -2.813808 2.319672 -0.472551
v -2.813808 3.643193 -0.472551
v -4.493432 3.643193 -0.472551
v -6.123097 5.208645 -0.472551
v -6.123097 10.673377 -0.472550
v -4.493432 12.306084 -0.472550
v 0.986724 12.306084 -0.472550
v 0.986724 12.306084 0.472551
v 2.524019 10.673377 -0.472550
v 2.524019 10.673377 0.472551
v 2.524019 9.335669 -0.472550
v 2.524019 9.335669 0.472551
v 5.910262 9.335669 -0.472550
v 5.910262 9.335669 0.472551
v 5.910262 6.574755 -0.472551
v 5.910262 6.574754 0.472551
v 5.056687 6.574755 -0.472551
v 5.056687 6.574754 0.472551
v 5.056687 2.291164 -0.472551
v 5.056687 2.291164 0.472550
v 3.420780 0.713899 -0.472551
v 3.420780 0.713899 0.472550
v -1.191105 0.713899 -0.472551
v -1.191105 0.713899 0.472550
v -2.813808 2.319672 -0.472551
v -2.813808 2.319672 0.472550
v -2.813808 3.643193 -0.472551
v -2.813808 3.643193 0.472550
v -4.493432 3.643193 -0.472551
v -4.493432 3.643193 0.472550
v -6.123097 5.208645 -0.472551
v -6.123097 5.208645 0.472551
v -6.123097 10.673377 -0.472550
v -6.123097 10.673377 0.472551
v -4.493432 12.306084 -0.472550
v -4.493432 12.306084 0.472551
vn 0.0000 -0.0000 1.0000
vn 0.0000 0.0000 -1.0000
vn 0.3965 0.9180 0.0000
vn 0.9295 0.3687 0.0000
vn 0.7071 0.7071 0.0000
vn 0.7071 -0.7071 0.0000
vn 0.9203 -0.3911 0.0000
vn 0.3742 -0.9273 0.0000
vn -0.3802 -0.9249 0.0000
vn -0.9228 -0.3851 0.0000
vn -0.7071 -0.7071 0.0000
vn -0.3734 -0.9277 0.0000
vn -0.9200 -0.3919 0.0000
vn -0.9240 0.3822 0.0000
vn -0.3831 0.9237 0.0000
usemtl SVGMat.006
s off
f 150//21 137//21 151//21
f 150//21 138//21 137//21
f 149//21 138//21 150//21
f 149//21 139//21 138//21
f 149//21 140//21 139//21
f 149//21 142//21 140//21
f 142//21 141//21 140//21
f 149//21 143//21 142//21
f 148//21 147//21 149//21
f 147//21 143//21 149//21
f 146//21 143//21 147//21
f 145//21 143//21 146//21
f 145//21 144//21 143//21
f 152//22 165//22 166//22
f 153//22 165//22 152//22
f 153//22 164//22 165//22
f 154//22 164//22 153//22
f 155//22 164//22 154//22
f 157//22 164//22 155//22
f 156//22 157//22 155//22
f 158//22 164//22 157//22
f 162//22 163//22 164//22
f 158//22 162//22 164//22
f 158//22 161//22 162//22
f 158//22 160//22 161//22
f 159//22 160//22 158//22
s 1
f 168//23 170//24 169//24 167//23
f 170//24 172//25 171//25 169//24
f 172//25 174//25 173//25 171//25
f 174//25 176//26 175//26 173//25
f 176//26 178//26 177//26 175//26
f 178//26 180//27 179//27 177//26
f 180//27 182//28 181//28 179//27
f 182//28 184//29 183//29 181//28
f 184//29 186//30 185//30 183//29
f 186//30 188//31 187//31 185//30
f 188//31 190//32 189//32 187//31
f 190//32 192//33 191//33 189//32
f 192//33 194//34 193//34 191//33
f 194//34 196//35 195//35 193//34
f 196//35 168//23 167//23 195//35
