{
    "asset" : {
        "generator" : "Khronos glTF Blender I/O v0.9.36",
        "version" : "2.0"
    },
    "scene" : 0,
    "scenes" : [
        {
            "name" : "Scene",
            "nodes" : [
                0,
                1
            ]
        }
    ],
    "nodes" : [
        {
            "mesh" : 0,
            "name" : "Curve",
            "rotation" : [
                0.7071067690849304,
                0,
                0,
                0.7071067690849304
            ],
            "scale" : [
                94.51012420654297,
                94.51012420654297,
                94.51012420654297
            ],
            "translation" : [
                -0.16120338439941406,
                0.16057389974594116,
                0
            ]
        },
        {
            "mesh" : 1,
            "name" : "Curve.001",
            "rotation" : [
                0.7071067690849304,
                0,
                0,
                0.7071067690849304
            ],
            "scale" : [
                94.51012420654297,
                94.51012420654297,
                94.51012420654297
            ],
            "translation" : [
                0.22251251339912415,
                -0.10726925730705261,
                0
            ]
        }
    ],
    "materials" : [
        {
            "alphaMode" : "BLEND",
            "doubleSided" : true,
            "name" : "Material",
            "pbrMetallicRoughness" : {
                "baseColorFactor" : [
                    0.8000000715255737,
                    0.628829300403595,
                    0.018564047291874886,
                    1
                ],
                "metallicFactor" : 0.5033887028694153,
                "roughnessFactor" : 0.4017828106880188
            }
        },
        {
            "doubleSided" : true,
            "name" : "SVGMat.006",
            "pbrMetallicRoughness" : {
                "baseColorFactor" : [
                    0,
                    0,
                    0,
                    1
                ],
                "metallicFactor" : 0,
                "roughnessFactor" : 0.5
            }
        }
    ],
    "meshes" : [
        {
            "name" : "Curve.006",
            "primitives" : [
                {
                    "attributes" : {
                        "POSITION" : 0,
                        "NORMAL" : 1
                    },
                    "indices" : 2,
                    "material" : 0
                }
            ]
        },
        {
            "name" : "Curve.007",
            "primitives" : [
                {
                    "attributes" : {
                        "POSITION" : 3,
                        "NORMAL" : 4
                    },
                    "indices" : 5,
                    "material" : 1
                }
            ]
        }
    ],
    "accessors" : [
        {
            "bufferView" : 0,
            "componentType" : 5126,
            "count" : 174,
            "max" : [
                0.0552426353096962,
                0.009999999776482582,
                0.05377738177776337
            ],
            "min" : [
                -0.05381590873003006,
                -0.009999999776482582,
                -0.05090342089533806
            ],
            "type" : "VEC3"
        },
        {
            "bufferView" : 1,
            "componentType" : 5126,
            "count" : 174,
            "type" : "VEC3"
        },
        {
            "bufferView" : 2,
            "componentType" : 5123,
            "count" : 396,
            "type" : "SCALAR"
        },
        {
            "bufferView" : 3,
            "componentType" : 5126,
            "count" : 75,
            "max" : [
                0.06018137186765671,
                0.004999999888241291,
                0.06038504093885422
            ],
            "min" : [
                -0.06714211404323578,
                -0.004999999888241291,
                -0.06227044761180878
            ],
            "type" : "VEC3"
        },
        {
            "bufferView" : 4,
            "componentType" : 5126,
            "count" : 75,
            "type" : "VEC3"
        },
        {
            "bufferView" : 5,
            "componentType" : 5123,
            "count" : 168,
            "type" : "SCALAR"
        }
    ],
    "bufferViews" : [
        {
            "buffer" : 0,
            "byteLength" : 2088,
            "byteOffset" : 0
        },
        {
            "buffer" : 0,
            "byteLength" : 2088,
            "byteOffset" : 2088
        },
        {
            "buffer" : 0,
            "byteLength" : 792,
            "byteOffset" : 4176
        },
        {
            "buffer" : 0,
            "byteLength" : 900,
            "byteOffset" : 4968
        },
        {
            "buffer" : 0,
            "byteLength" : 900,
            "byteOffset" : 5868
        },
        {
            "buffer" : 0,
            "byteLength" : 336,
            "byteOffset" : 6768
        }
    ],
    "buffers" : [
        {
            "byteLength" : 7104,
            "uri" : "CULogo-7-6-20.bin"
        }
    ]
}
