{
    "asset" : {
        "generator" : "Khronos glTF Blender I/O v0.9.36",
        "version" : "2.0"
    },
    "scene" : 0,
    "scenes" : [
        {
            "name" : "Scene",
            "nodes" : [
                0,
                1,
                2
            ]
        }
    ],
    "nodes" : [
        {
            "mesh" : 0,
            "name" : "Icosphere",
            "translation" : [
                0,
                3.780245065689087,
                0
            ]
        },
        {
            "mesh" : 1,
            "name" : "Curve",
            "rotation" : [
                0.7071067690849304,
                0,
                0,
                0.7071067690849304
            ],
            "scale" : [
                6.000964641571045,
                -14.907631874084473,
                5.436739444732666
            ],
            "translation" : [
                -0.03371351957321167,
                3.9803671836853027,
                0.774203360080719
            ]
        },
        {
            "mesh" : 2,
            "name" : "Curve.001",
            "rotation" : [
                0.7071067690849304,
                0,
                0,
                0.7071067690849304
            ],
            "scale" : [
                6.000964641571045,
                -14.907631874084473,
                5.436739444732666
            ],
            "translation" : [
                -0.089573435485363,
                3.693974494934082,
                0.7933146357536316
            ]
        }
    ],
    "materials" : [
        {
            "alphaMode" : "BLEND",
            "doubleSided" : true,
            "emissiveFactor" : [
                0.04756719619035721,
                0.0167018324136734,
                1
            ],
            "name" : "Material.001",
            "pbrMetallicRoughness" : {
                "baseColorFactor" : [
                    0.7157228589057922,
                    0.752004861831665,
                    0.8000000715255737,
                    1
                ],
                "metallicFactor" : 0.9704545736312866,
                "roughnessFactor" : 0.2454545497894287
            }
        },
        {
            "doubleSided" : true,
            "name" : "SVGMat.001",
            "pbrMetallicRoughness" : {}
        },
        {
            "alphaMode" : "BLEND",
            "doubleSided" : true,
            "emissiveFactor" : [
                0.04756719619035721,
                0.0167018324136734,
                1
            ],
            "name" : "Material",
            "pbrMetallicRoughness" : {
                "baseColorFactor" : [
                    0.10651092976331711,
                    0.8000000715255737,
                    0.12296884506940842,
                    1
                ],
                "metallicFactor" : 0,
                "roughnessFactor" : 0.8083288073539734
            }
        }
    ],
    "meshes" : [
        {
            "name" : "Icosphere",
            "primitives" : [
                {
                    "attributes" : {
                        "POSITION" : 0,
                        "NORMAL" : 1,
                        "TEXCOORD_0" : 2
                    },
                    "indices" : 3,
                    "material" : 0
                }
            ]
        },
        {
            "name" : "Curve",
            "primitives" : [
                {
                    "attributes" : {
                        "POSITION" : 4,
                        "NORMAL" : 5
                    },
                    "indices" : 6,
                    "material" : 1
                }
            ]
        },
        {
            "name" : "Curve.001",
            "primitives" : [
                {
                    "attributes" : {
                        "POSITION" : 7,
                        "NORMAL" : 8
                    },
                    "indices" : 9,
                    "material" : 2
                }
            ]
        }
    ],
    "accessors" : [
        {
            "bufferView" : 0,
            "componentType" : 5126,
            "count" : 240,
            "max" : [
                0.9510578513145447,
                1,
                0.8587133884429932
            ],
            "min" : [
                -0.9510578513145447,
                -0.9737318754196167,
                -0.9999999403953552
            ],
            "type" : "VEC3"
        },
        {
            "bufferView" : 1,
            "componentType" : 5126,
            "count" : 240,
            "type" : "VEC3"
        },
        {
            "bufferView" : 2,
            "componentType" : 5126,
            "count" : 240,
            "type" : "VEC2"
        },
        {
            "bufferView" : 3,
            "componentType" : 5123,
            "count" : 240,
            "type" : "SCALAR"
        },
        {
            "bufferView" : 4,
            "componentType" : 5126,
            "count" : 854,
            "max" : [
                0.07563666999340057,
                0,
                0.044721972197294235
            ],
            "min" : [
                -0.0692976713180542,
                -0.006545385345816612,
                -0.05184801667928696
            ],
            "type" : "VEC3"
        },
        {
            "bufferView" : 5,
            "componentType" : 5126,
            "count" : 854,
            "type" : "VEC3"
        },
        {
            "bufferView" : 6,
            "componentType" : 5123,
            "count" : 1230,
            "type" : "SCALAR"
        },
        {
            "bufferView" : 7,
            "componentType" : 5126,
            "count" : 4240,
            "max" : [
                0.05711808800697327,
                0.0005454814527183771,
                0.05638839676976204
            ],
            "min" : [
                -0.03678649663925171,
                -0.007088749669492245,
                -0.04398902505636215
            ],
            "type" : "VEC3"
        },
        {
            "bufferView" : 8,
            "componentType" : 5126,
            "count" : 4240,
            "type" : "VEC3"
        },
        {
            "bufferView" : 9,
            "componentType" : 5123,
            "count" : 7017,
            "type" : "SCALAR"
        }
    ],
    "bufferViews" : [
        {
            "buffer" : 0,
            "byteLength" : 2880,
            "byteOffset" : 0
        },
        {
            "buffer" : 0,
            "byteLength" : 2880,
            "byteOffset" : 2880
        },
        {
            "buffer" : 0,
            "byteLength" : 1920,
            "byteOffset" : 5760
        },
        {
            "buffer" : 0,
            "byteLength" : 480,
            "byteOffset" : 7680
        },
        {
            "buffer" : 0,
            "byteLength" : 10248,
            "byteOffset" : 8160
        },
        {
            "buffer" : 0,
            "byteLength" : 10248,
            "byteOffset" : 18408
        },
        {
            "buffer" : 0,
            "byteLength" : 2460,
            "byteOffset" : 28656
        },
        {
            "buffer" : 0,
            "byteLength" : 50880,
            "byteOffset" : 31116
        },
        {
            "buffer" : 0,
            "byteLength" : 50880,
            "byteOffset" : 81996
        },
        {
            "buffer" : 0,
            "byteLength" : 14034,
            "byteOffset" : 132876
        }
    ],
    "buffers" : [
        {
            "byteLength" : 146912,
            "uri" : "Lushroom2.bin"
        }
    ]
}
